<mxfile host="app.diagrams.net" agent="Mozilla/5.0 (Macintosh; Intel Mac OS X 10_15_7) AppleWebKit/537.36 (KHTML, like Gecko) Chrome/131.0.0.0 Safari/537.36" version="26.0.4">
  <diagram name="Page-1" id="uuu_lq19nDX1OKPsEMl2">
    <mxGraphModel dx="855" dy="507" grid="1" gridSize="10" guides="1" tooltips="1" connect="1" arrows="1" fold="1" page="1" pageScale="1" pageWidth="850" pageHeight="1100" math="0" shadow="0">
      <root>
        <mxCell id="0" />
        <mxCell id="1" parent="0" />
        <mxCell id="ReUAEL3WxCu3cSFe1R8i-2" value="" style="whiteSpace=wrap;html=1;aspect=fixed;" vertex="1" parent="1">
          <mxGeometry x="180" y="310" width="200" height="200" as="geometry" />
        </mxCell>
        <mxCell id="EcJp2aTLy-7jzl-mxY_P-1" value="Html" style="ellipse;whiteSpace=wrap;html=1;aspect=fixed;" vertex="1" parent="1">
          <mxGeometry x="210" y="330" width="60" height="60" as="geometry" />
        </mxCell>
        <mxCell id="EcJp2aTLy-7jzl-mxY_P-2" value="Css" style="ellipse;whiteSpace=wrap;html=1;aspect=fixed;" vertex="1" parent="1">
          <mxGeometry x="260" y="320" width="70" height="70" as="geometry" />
        </mxCell>
        <mxCell id="EcJp2aTLy-7jzl-mxY_P-3" value="JS + DOM" style="ellipse;whiteSpace=wrap;html=1;aspect=fixed;" vertex="1" parent="1">
          <mxGeometry x="235" y="370" width="80" height="80" as="geometry" />
        </mxCell>
        <mxCell id="EcJp2aTLy-7jzl-mxY_P-4" value="" style="endArrow=classic;html=1;rounded=0;" edge="1" parent="1">
          <mxGeometry width="50" height="50" relative="1" as="geometry">
            <mxPoint x="380" y="409.58" as="sourcePoint" />
            <mxPoint x="580" y="409.58" as="targetPoint" />
          </mxGeometry>
        </mxCell>
        <mxCell id="EcJp2aTLy-7jzl-mxY_P-5" value="" style="ellipse;whiteSpace=wrap;html=1;aspect=fixed;" vertex="1" parent="1">
          <mxGeometry x="580" y="262.5" width="275" height="275" as="geometry" />
        </mxCell>
        <mxCell id="EcJp2aTLy-7jzl-mxY_P-6" value="JS&lt;div&gt;Advanced&lt;/div&gt;" style="ellipse;whiteSpace=wrap;html=1;aspect=fixed;" vertex="1" parent="1">
          <mxGeometry x="680" y="290" width="80" height="80" as="geometry" />
        </mxCell>
        <mxCell id="EcJp2aTLy-7jzl-mxY_P-7" value="" style="ellipse;whiteSpace=wrap;html=1;aspect=fixed;" vertex="1" parent="1">
          <mxGeometry x="610" y="370" width="80" height="80" as="geometry" />
        </mxCell>
        <mxCell id="EcJp2aTLy-7jzl-mxY_P-8" value="" style="ellipse;whiteSpace=wrap;html=1;aspect=fixed;" vertex="1" parent="1">
          <mxGeometry x="760" y="370" width="80" height="80" as="geometry" />
        </mxCell>
        <mxCell id="EcJp2aTLy-7jzl-mxY_P-9" value="" style="ellipse;whiteSpace=wrap;html=1;aspect=fixed;" vertex="1" parent="1">
          <mxGeometry x="690" y="430" width="80" height="80" as="geometry" />
        </mxCell>
      </root>
    </mxGraphModel>
  </diagram>
</mxfile>
